<?xml version="1.0" encoding="utf-8"?>
<!-- Generator: Adobe Illustrator 21.1.0, SVG Export Plug-In . SVG Version: 6.00 Build 0)  -->
<svg version="1.1" id="Layer_1" xmlns="http://www.w3.org/2000/svg" xmlns:xlink="http://www.w3.org/1999/xlink" x="0px" y="0px"
	 viewBox="0 0 365.9 146.6" style="enable-background:new 0 0 365.9 146.6;" xml:space="preserve">
<style type="text/css">
	.st0{fill:#FFFFFF;stroke:#FFFFFF;stroke-miterlimit:10;}
</style>
<title>Asset 1</title>
<g id="Layer_2">
	<g id="Layer_1-2">
		<path class="st0" d="M64.1,27.1c-6.3-5.9-13.5-7.9-22-7.9c-10.4,0-16.2,3.2-16.2,8.8c0,5.8,5.2,9,16.6,9.7
			c16.7,1.1,38,4.9,38,28.4c0,15.7-15.4,29.2-38.2,29.2c-14,0-28.1-2.3-41-15.8l10.8-15.7c6.3,7,20.7,12.2,30.6,12.4
			c8.3,0.2,16-4.1,16-10.6c0-6.1-5-8.6-17.6-9.4C24.3,55,4.3,48.9,4.3,28.7C4.3,8.2,25.6,1,41.8,1c13.9,0,24.3,2.7,34.6,11.7
			L64.1,27.1z"/>
		<path class="st0" d="M180.7,48c0,25.6-17.5,46.3-46.3,46.3S87.4,73.5,87.4,48c0-25.4,18.6-46.3,46.9-46.3S180.7,22.6,180.7,48z
			 M109.3,48c0,13.5,9.1,26.1,25.1,26.1s24.1-12.6,24.1-26.1c0-13.3-9.4-26.3-24.1-26.3C118.6,21.7,109.3,34.6,109.3,48z"/>
		<path class="st0" d="M214.2,3v37.2l29.9-35.6h26.3v1.3l-36.2,40.5l41.2,45.4v1.6H249l-34.8-40.1v40.1h-22V3H214.2z"/>
		<path class="st0" d="M365,48c0,25.6-19.5,46.3-48.3,46.3S268.6,73.5,268.6,48c0-25.4,19.6-46.3,47.9-46.3S365,22.6,365,48z
			 M290.6,48c0,13.5,10.1,26.1,26.1,26.1s26.1-12.6,26.1-26.1c0-13.3-11.4-26.3-26.1-26.3C300.9,21.7,290.6,34.6,290.6,48L290.6,48z
			"/>
		<path class="st0" d="M268.5,123.2h-7.6v-5.4h21.8v5.4h-7.7v22.9h-6.4L268.5,123.2z"/>
		<path class="st0" d="M302.8,134.2h-10.4v6.7h11.6v5.2H286v-28.3h17.5v5.2h-11v5.9h10.4L302.8,134.2z"/>
		<path class="st0" d="M329.2,145.4c-2.3,0.9-4.8,1.3-7.3,1.2c-9.8,0-14.8-6.1-14.8-14.2c0-9.7,6.9-15,15.5-15
			c2.4-0.1,4.8,0.3,7,1.3l-1.3,5.1c-1.7-0.7-3.5-1-5.4-1c-5.1,0-9,3.1-9,9.4c0,5.7,3.4,9.2,9.1,9.2c1.8,0,3.6-0.3,5.3-0.9
			L329.2,145.4z"/>
		<path class="st0" d="M339.8,117.9v10.9h10.5v-10.9h6.4v28.3h-6.4v-11.9h-10.5v11.9h-6.4v-28.3H339.8z"/>
	</g>
</g>
</svg>
