<svg xmlns="http://www.w3.org/2000/svg" viewBox="0 0 365.94 146.61"><defs><style>.cls-1{stroke:#000;stroke-miterlimit:10;stroke-width:1.98px;}</style></defs><title>Asset 1</title><g id="Layer_2" data-name="Layer 2"><g id="Layer_1-2" data-name="Layer 1"><path class="cls-1" d="M64.09,27.09c-6.3-5.94-13.5-7.92-22-7.92-10.44,0-16.2,3.24-16.2,8.82,0,5.76,5.22,9,16.56,9.72,16.74,1.08,38,4.86,38,28.44,0,15.66-15.44,29.16-38.16,29.16-14,0-28.08-2.34-41-15.84l10.8-15.66c6.3,7,20.7,12.24,30.6,12.42,8.28.18,16-4.14,16-10.62,0-6.12-5-8.64-17.64-9.36C24.32,55,4.34,48.87,4.34,28.71,4.34,8.19,25.58,1,41.78,1c13.86,0,24.3,2.7,34.56,11.7Z"/><path class="cls-1" d="M180.71,48c0,25.56-17.46,46.26-46.26,46.26S87.38,73.53,87.38,48c0-25.38,18.64-46.26,46.9-46.26S180.71,22.59,180.71,48Zm-71.38,0c0,13.5,9.1,26.1,25.12,26.1s24.12-12.6,24.12-26.1c0-13.32-9.36-26.28-24.12-26.28C118.62,21.69,109.33,34.65,109.33,48Z"/><path class="cls-1" d="M214.25,3V40.15L244.13,4.51h26.28V5.77l-36.18,40.5,41.22,45.36v1.62H249L214.25,53.11V93.25h-22V3Z"/><path class="cls-1" d="M365,48c0,25.56-19.46,46.26-48.26,46.26S268.62,73.53,268.62,48c0-25.38,19.64-46.26,47.9-46.26S365,22.59,365,48Zm-74.38,0c0,13.5,10.1,26.1,26.12,26.1s26.12-12.6,26.12-26.1c0-13.32-11.36-26.28-26.12-26.28C300.85,21.69,290.57,34.65,290.57,48Z"/><path d="M268.45,123.25h-7.6v-5.38H282.6v5.38h-7.73v22.94h-6.43Z"/><path d="M302.84,134.22H292.43v6.72h11.64v5.25H286V117.88h17.47v5.25h-11V129h10.42Z"/><path d="M329.22,145.39a18.25,18.25,0,0,1-7.27,1.22c-9.79,0-14.83-6.09-14.83-14.16,0-9.66,6.89-15,15.46-15a16.69,16.69,0,0,1,7,1.26l-1.3,5.08a13.83,13.83,0,0,0-5.38-1c-5.08,0-9,3.07-9,9.37,0,5.67,3.36,9.24,9.07,9.24a16,16,0,0,0,5.33-.92Z"/><path d="M339.84,117.88v10.88h10.54V117.88h6.38v28.31h-6.38V134.34H339.84v11.85h-6.43V117.88Z"/></g></g></svg>