<?xml version="1.0" encoding="utf-8"?>
<!-- Generator: Adobe Illustrator 21.1.0, SVG Export Plug-In . SVG Version: 6.00 Build 0)  -->
<svg version="1.1" id="Default" xmlns="http://www.w3.org/2000/svg" xmlns:xlink="http://www.w3.org/1999/xlink" x="0px" y="0px"
	 viewBox="0 0 194.9 276.1" style="enable-background:new 0 0 194.9 276.1;" xml:space="preserve">
<style type="text/css">
	.st0{fill:#FFFFFF;}
	.st1{stroke:#000000;stroke-miterlimit:10;}
	.st2{fill:#FFFFFF;stroke:#000000;stroke-miterlimit:10;}
	.st3{fill:#FFFFFF;stroke:#FFFFFF;stroke-miterlimit:10;}
	.st4{fill:none;stroke:#000000;stroke-miterlimit:10;}
</style>
<path class="st0" d="M75.2,237.1c-0.5-0.6-1.1-1.2-1.6-1.8c-0.4-0.5-0.8-0.9-1.2-1.4c-0.4-0.5-0.8-1-1.2-1.5
	c-0.4-0.5-0.8-1.1-1.2-1.7c-0.4-0.6-0.8-1.2-1.1-1.9c-0.1-0.2-0.2-0.5-0.3-0.7c-0.7-1.5-1.4-3.1-2.1-4.7c-1.4-3.1-2.7-6.2-4-9.3
	c-2.6-6.2-5.1-12.3-7.7-18.5c-0.4-0.9-0.7-1.7-1-2.6c-0.3-0.9-0.7-1.8-1-2.7c-0.3,0.3-0.5,0.5-0.8,0.7c-0.5,0.4-1.1,0.8-1.6,1.1
	c-0.3,0.2-0.6,0.3-0.9,0.5c-0.3,0.1-0.6,0.3-0.9,0.4c-0.6,0.2-1.3,0.4-1.9,0.5c-0.6,0.1-1.3,0.2-2,0.3c-0.3,0-0.7,0-1,0
	c-0.3,0-0.6,0-0.9,0c-0.6,0-1.2-0.1-1.7-0.1c-0.6-0.1-1.1-0.2-1.7-0.3c-0.5-0.1-1.1-0.3-1.6-0.5c-0.5-0.2-1-0.4-1.5-0.7
	c-0.5-0.3-0.9-0.6-1.4-0.9c-0.4-0.3-0.8-0.7-1.2-1c-0.4-0.4-0.7-0.7-1-1.1c-0.3-0.4-0.6-0.8-0.9-1.2c-0.3-0.4-0.5-0.8-0.7-1.2
	c-0.2-0.5-0.5-0.9-0.7-1.4c-0.3-0.8-0.6-1.6-0.9-2.5c-0.1-0.2-0.1-0.4-0.2-0.6c-0.1-0.2-0.1-0.4-0.2-0.6c-0.3-1.1-0.5-2.1-0.8-3.2
	s-0.5-2.1-0.7-3.2c-0.5-2.3-1-4.5-1.4-6.8c-0.5-2.3-0.9-4.5-1.3-6.8c-0.1-0.3-0.1-0.6-0.2-0.9c-0.1-0.3-0.1-0.6-0.2-0.9
	c0-0.2-0.1-0.4-0.1-0.6c0-0.2-0.1-0.4-0.1-0.6c0-0.2-0.1-0.3-0.1-0.5c0-0.2-0.1-0.3-0.1-0.5c0-0.2-0.1-0.3-0.1-0.5
	c0-0.3-0.1-0.7-0.1-1c0-0.3-0.1-0.7-0.1-1c-0.1-0.8-0.1-1.6,0-2.4c0-0.4,0.1-0.9,0.1-1.3c0.1-0.5,0.1-0.9,0.3-1.4
	c0.1-0.5,0.2-0.9,0.4-1.4c0.2-0.5,0.4-0.9,0.6-1.4c0.2-0.5,0.5-0.9,0.8-1.4c0.3-0.5,0.6-0.9,1-1.3c0.3-0.4,0.6-0.7,1-1.1
	c0-0.9,0-1.7,0-2.6c0.1-1.1,0.2-2.1,0.4-3.1c0.2-1.1,0.5-2.1,0.8-3.1c0.3-1,0.7-2,1.1-2.9c0.5-1.1,1-2.1,1.6-3.1
	c0.5-0.9,1.1-1.7,1.7-2.5c0.6-0.8,1.2-1.6,1.8-2.3c1.2-1.5,2.6-2.8,4-4.2c0.3-0.3,0.7-0.7,1-1c0.1-0.1,0.2-0.2,0.3-0.3
	c0.1-0.1,0.3-0.2,0.4-0.4c-0.7-0.2-1.4-0.3-2-0.5c-0.7-0.2-1.3-0.4-2-0.7c-0.7-0.3-1.4-0.6-2.1-1c-0.4-0.2-0.7-0.4-1.1-0.6
	c-0.2-0.1-0.3-0.2-0.5-0.3c-0.2-0.1-0.3-0.2-0.5-0.4c-0.6-0.5-1.2-1-1.8-1.6c-0.5-0.6-1-1.3-1.4-2c-0.4-0.7-0.8-1.5-1-2.3
	c-0.2-0.8-0.4-1.7-0.4-2.5c0-0.4,0-0.9,0.1-1.3c0.1-0.4,0.1-0.9,0.3-1.3c0.1-0.4,0.3-0.9,0.4-1.3c0.2-0.4,0.4-0.8,0.6-1.2
	c0.2-0.4,0.5-0.7,0.8-1.1c0.3-0.3,0.6-0.7,0.9-1c0.3-0.3,0.6-0.6,1-0.8c0.3-0.3,0.7-0.5,1-0.7c0.4-0.2,0.7-0.4,1.1-0.6
	c0.2-0.1,0.4-0.2,0.6-0.3c0.3-0.1,0.6-0.2,0.9-0.4c0.6-0.2,1.2-0.4,1.7-0.6c0.5-0.2,1.1-0.3,1.7-0.4c1-0.2,1.9-0.4,2.9-0.5
	c-0.1-0.3-0.3-0.7-0.4-1c-0.3-0.8-0.6-1.6-0.9-2.4c-0.4-1.1-0.8-2.2-1.2-3.3c-0.4-1.1-0.8-2.3-1.1-3.5c0-0.2-0.1-0.3-0.1-0.5
	c-0.1-0.3-0.2-0.6-0.3-0.9c-0.2-0.7-0.4-1.4-0.6-2.1c-0.4-1.4-0.7-2.8-1.1-4.2c-1.3-5.6-2.4-11.3-3.2-17c0-0.2-0.1-0.4-0.1-0.6
	c0-0.1-0.1-0.3-0.1-0.4c0-0.1,0-0.1-0.1-0.2c0,0,0,0,0-0.1c0,0,0,0,0,0c0,0,0,0,0,0c0,0,0,0-0.1-0.1c-0.1-0.1-0.2-0.1-0.3-0.2
	c-0.1-0.1-0.3-0.2-0.4-0.2c-0.9-0.5-1.7-0.9-2.6-1.4c-0.9-0.5-1.7-1.1-2.6-1.7c-0.9-0.6-1.7-1.3-2.5-2c-0.9-0.7-1.7-1.5-2.4-2.3
	c-3.3-3.6-6.6-7.1-9.9-10.7c4.8,0.4,9.7,0.8,14.5,1.2c0.7,0.1,1.4,0.1,2,0.2c-0.6-1.8-1.2-3.6-1.7-5.4C25.3,31.1,23.7,26.1,22,21
	c4.5,2.9,8.9,5.8,13.4,8.7c0.9,0.6,1.8,1.2,2.7,1.7c0.8,0.5,1.6,1.1,2.5,1.7c0.8,0.6,1.6,1.2,2.4,1.8c0.8,0.6,1.6,1.3,2.4,2
	c0.8,0.7,1.6,1.5,2.3,2.3c0.8,0.8,1.5,1.7,2.1,2.6c0.7,0.9,1.3,1.9,1.9,2.9c0.6,1,1.1,2.1,1.5,3.2c0.5,1.3,1.1,2.5,1.7,3.7
	c0.6,1.1,1.3,2.2,2.1,3.3c0.8,1,1.6,2,2.5,2.9c0.9,0.9,1.9,1.8,2.9,2.6c1,0.9,2.1,1.7,3.2,2.4c1.1,0.8,2.3,1.6,3.5,2.3
	c1.2,0.7,2.3,1.4,3.5,2c1.2,0.7,2.5,1.3,3.7,2c0.2,0,0.3,0,0.5,0c0.2,0,0.4,0,0.6,0c0.2,0,0.4,0,0.6,0c6.9-0.1,13.9-0.3,20.8-0.4
	c1.7,0,3.5,0,5.2-0.1c0.3,0,0.7,0,1,0c0.3,0,0.7,0,1,0c0.2,0,0.4,0,0.6,0c0.4,0,0.8,0,1.2,0c0.4,0,0.8,0,1.2,0.1
	c0.4,0,0.7,0,1.1,0.1c0.4,0,0.7,0.1,1.1,0.1c0.3,0,0.7,0.1,1,0.1c0.3,0,0.7,0.1,1,0.1c0.6,0.1,1.3,0.1,1.9,0.1
	c0.6,0,1.2,0.1,1.8,0.1c0,0,0.1,0,0.1,0c0,0,0.1,0,0.1,0c0,0,0.1,0,0.1,0c0,0,0.1,0,0.1,0c0,0,0,0,0.1,0c0,0,0,0,0.1,0
	c0.1,0,0.1-0.1,0.2-0.1c0.1,0,0.1-0.1,0.2-0.1c0.1-0.1,0.3-0.2,0.4-0.3c0.1-0.1,0.3-0.2,0.4-0.3c0.1-0.1,0.3-0.2,0.4-0.3
	c0.4-0.3,0.8-0.5,1.2-0.8c0.4-0.3,0.8-0.5,1.2-0.8c0.4-0.3,0.8-0.5,1.2-0.8c0.4-0.3,0.8-0.5,1.2-0.8c1.6-1.1,3.3-2.2,4.9-3.2
	c1.6-1.1,3.3-2.2,4.9-3.2c3.3-2.2,6.6-4.3,9.9-6.5c0.4-0.3,0.8-0.5,1.2-0.8c0.2-0.1,0.3-0.2,0.5-0.3c0.1-0.1,0.3-0.2,0.4-0.3
	c0.1-0.1,0.3-0.2,0.4-0.4c0-0.2-0.1-0.3-0.1-0.5c0-0.1-0.1-0.3-0.1-0.4c0-0.2-0.1-0.3-0.1-0.5c-0.1-0.4-0.3-0.8-0.4-1.3
	c-0.3-0.9-0.6-1.8-0.8-2.7c-0.2-0.9-0.5-1.8-0.6-2.8c-0.2-0.9-0.3-1.9-0.4-2.8c-0.1-1-0.1-1.9-0.1-2.9c0-2,0.3-4,0.7-6
	c0.2-1,0.6-2,0.9-3c0.4-1,0.8-2,1.3-3c2.3-4.6,4.6-9.1,6.9-13.7c1.2,5,2.4,9.9,3.7,14.9c0.6,2.6,1.3,5.2,1.9,7.6
	c0.7-0.4,1.4-0.8,2.2-1c0.8-0.3,1.7-0.5,2.5-0.7c0.9-0.1,1.8-0.2,2.6-0.2c0.9,0,1.8,0.1,2.6,0.3c2.3,0.5,4.5,0.9,6.8,1.4
	c-0.9,2.1-1.8,4.2-2.7,6.4c-0.6,1.4-1.2,2.9-1.8,4.3c-0.5,1.2-1,2.3-1.5,3.5c-0.2,0.6-0.5,1.1-0.7,1.7c-0.1,0.3-0.2,0.6-0.3,0.8
	c-0.2,0.5-0.4,1-0.5,1.5c-0.9,2.6-1.8,5.1-2.7,7.7c-1,2.8-2,5.7-3,8.5c-0.5,1.3-0.9,2.6-1.4,3.8c-0.5,1.2-0.9,2.5-1.4,3.7
	c-1,2.5-2.1,5-3.1,7.5c-1,2.4-2.1,4.9-3.1,7.4c-0.5,1.2-0.9,2.3-1.3,3.5c0,0.1-0.1,0.3-0.1,0.4c0,0,0,0,0,0.1c0,0.1,0,0.1,0,0.2
	c0,0.1,0,0.1,0,0.2c0,0.2,0,0.4-0.1,0.5c0,0.2,0,0.4,0,0.7c0,0.2,0,0.5,0.1,0.7c0,0.1,0,0.2,0.1,0.4c0,0.1,0,0.2,0.1,0.4
	c0,0.1,0,0.1,0,0.2c0,0.1,0,0.1,0,0.2c0.4,1.8,0.8,3.5,1.3,5.3c0.4,1.8,0.9,3.5,1.3,5.3c1.8,7.1,3.6,14.2,5.5,21.3
	c0.6,2.1,1,4.3,1.4,6.5c0.4,2.1,0.6,4.3,0.8,6.5c0.2,2.1,0.2,4.3,0.2,6.4c0,2.1-0.1,4.2-0.3,6.3c-0.2,2.1-0.4,4.2-0.8,6.3
	c-0.3,2.1-0.7,4.1-1.2,6.2c-0.5,2.1-1,4.1-1.6,6.1c-0.6,2-1.2,4-1.9,6.1c-0.2,0.6-0.4,1.3-0.6,1.9c-0.6,1.7-1.1,3.5-1.7,5.2
	c-1.9,5.7-3.8,11.5-5.7,17.2c-1.4-4.8-2.8-9.6-4.3-14.4c-1.6,2-3.2,3.9-4.7,5.9c-0.8,1-1.6,2-2.4,3c-1.2-0.4-2.5-0.8-3.7-1.2
	c-0.6-0.2-1.3-0.4-1.9-0.6c-0.9-0.3-1.7-0.6-2.6-0.8c-0.3,1.4-0.7,2.7-1.1,4c-0.7,2.3-1.5,4.5-2.5,6.7c-0.6,1.3-1.2,2.7-1.8,4
	c-0.7,1.3-1.3,2.6-2.1,3.9c-1.5,2.6-3.2,5.1-4.9,7.5c-0.2,0.3-0.4,0.5-0.5,0.8c-0.2,0.3-0.3,0.7-0.5,1c-0.2,0.4-0.3,0.8-0.5,1.2
	c-0.2,0.4-0.3,0.9-0.4,1.4c-0.1,0.5-0.3,1-0.4,1.5c-0.1,0.5-0.3,1.1-0.4,1.6c-0.2,0.7-0.3,1.3-0.4,2c-0.1,0.6-0.3,1.2-0.4,1.8
	c-0.1,0.3-0.1,0.6-0.1,0.8c0,0.4-0.1,0.7-0.1,1.1c0,0.4,0,0.8,0,1.3c0,0.6,0,1.1,0,1.7c0,0.6,0,1.1-0.1,1.7c0,0.6-0.1,1.2-0.1,1.8
	c0,0.2,0,0.3-0.1,0.5c0,0.2-0.1,0.4-0.1,0.6c-0.1,0.4-0.1,0.8-0.2,1.3c-0.2,0.8-0.4,1.6-0.6,2.4c-0.3,0.8-0.6,1.5-0.9,2.3
	c-0.3,0.7-0.7,1.5-1.2,2.1c-0.4,0.7-0.9,1.3-1.4,2c-0.5,0.6-1.1,1.2-1.7,1.7c-0.6,0.5-1.2,1-1.9,1.5c-0.7,0.4-1.4,0.8-2.1,1.2
	c-0.7,0.3-1.5,0.6-2.2,0.9c-0.8,0.2-1.6,0.4-2.3,0.6c-0.8,0.1-1.6,0.2-2.4,0.3c-0.8,0-1.7,0-2.5,0c-0.8-0.1-1.7-0.2-2.5-0.3
	c-0.4-0.1-0.8-0.1-1.2-0.2c-0.4-0.1-0.8-0.2-1.2-0.3c-0.8-0.2-1.5-0.5-2.3-0.7c-0.7-0.3-1.4-0.6-2.1-1c-0.7-0.4-1.3-0.8-2-1.3
	c-0.6-0.5-1.2-1-1.8-1.5c-0.6-0.5-1.1-1.1-1.5-1.8c-0.5-0.6-0.9-1.3-1.3-2c-0.4-0.7-0.7-1.4-1-2.1c-0.3-0.7-0.5-1.5-0.6-2.2
	c-0.2-0.8-0.3-1.5-0.4-2.3c-0.1-0.8-0.1-1.6-0.1-2.4C75,239,75.1,238,75.2,237.1z"/>
<path class="st1" d="M81.3,235.5c-2.9-3.6-5.9-6.2-7.4-9.4c-4.9-10.7-9.3-21.6-13.8-32.5c-1.4-3.4-2.5-6.9-4-10.2
	c-0.8-1.8-2.3-3.2-4.4-6c-0.6,6.7-1.9,11.1-8.4,11c-5.5,0-7.6-3.6-8.7-8c-1.8-7.4-3.4-14.9-4.7-22.4c-0.7-3.9-1.1-8,2.9-11
	c0.6-0.5,0.9-1.8,0.9-2.6c-0.7-9.3,4.4-15.7,10.7-21.5c0.7-0.7,1.5-1.3,2.1-2.1c3.3-3.9,2.2-6.6-2.8-7.7c-2.4-0.5-5-1.1-6.9-2.4
	c-3.9-2.6-4-6.8,0.3-8.6c3.8-1.7,8.4-1.6,13.1-2.3c-1.8-4.8-4.6-10.7-6.4-16.9C41.6,75,40,67.2,38.9,59.3c-0.4-3.2-1.6-4.7-4.1-6
	c-3.1-1.6-6.1-3.5-8.6-6.2c3.4,0.3,6.8,0.6,10.5,0.9c-1.5-4.8-2.9-9.2-4.4-13.5c6.4,4.2,12.8,8.3,15.5,15.5
	c4.8,12.6,15.3,18.9,26.4,24.5c1.1,0.5,2.6,0.3,3.9,0.3c9.3-0.2,18.5-0.4,27.8-0.5c3.6,0,7.3,0.6,11,0.7c1.2,0,2.6-0.5,3.6-1.2
	c8.8-5.7,17.5-11.5,26.3-17.2c5.4-3.5,6.2-5,4.1-11.1c-2.1-6.2-2.6-12.3,0.7-18.8c1.4,5.8,2.8,11.2,4.1,16.5
	c0.4,0.1,0.9,0.1,1.3,0.2c2.6-5,6.5-7.4,10.9-6.5c-1.6,3.8-3.2,7.3-4.5,10.9c-2.7,7.5-5.1,15-7.9,22.4c-2.7,7.1-6,14.1-8.6,21.2
	c-0.7,2-0.6,4.6-0.1,6.7c2.5,10.7,5.3,21.3,8.1,31.9c4.2,16.1,1.9,31.7-3.2,47.1c-0.7,2-1.3,4.1-2.3,7.1c-0.6-1.9-1-3-1.2-4.1
	c-0.2-1.2-0.3-2.5-0.4-3.9c-4.2,5.2-8.1,10.1-12.1,14.9c-0.6-0.2-1.3-0.4-1.9-0.6c3.1-9.6,2.7-18.5-5.1-27.3
	c-0.9,5.3-2.2,9.7-2.4,14.1c-0.7,14.9-4.8,28.3-13.8,40.4c-2.7,3.6-3.4,8.7-4.5,13.3c-0.7,3-0.2,6.3-0.7,9.4
	c-1.2,8.8-7.3,13.1-15.8,11.5c-8.1-1.5-11.7-7.3-9.9-15.9C81.3,235.5,81.4,234.9,81.3,235.5z"/>
<path class="st2" d="M69.3,165.1c0,3,0,6.1,0,9.1c-2.4-6.1-4.3-10.9-6.5-16.5c-0.6,2.5-1.1,4.4-1.8,7.3c-0.5-1.7-1-2.6-1-3.5
	c0.3-4.5,0.1-9.1,1.2-13.4c2.6-9.9,1.4-19.8,1-29.6c-0.4-11.2-4.9-21.3-10-31.1c-0.6-1.2-1.3-2.3-1.9-3.5c-3.5-7.5-8.3-14.9-2.5-24
	c5.5,8.8,14.5,13.5,23.2,18.5c1.6,0.9,3.9,1.9,5.5,1.6c12.5-2.7,24.9-0.3,37.3,0.7c4.7,0.4,8.2-0.8,11.8-3.9c4-3.4,8.8-6,13.1-9.1
	c5.3-3.9,10.5-8,15.8-12c-0.1,4,0.4,8.1-2.4,12.4c-4.7,7.4-8.6,15.4-12.3,23.3c-1,2.1-0.8,5.1-0.2,7.5c2.1,8.6,4.6,17,6.8,25.5
	c0.3,1.2-0.3,2.7-0.6,5.2c7.3,8.4,8.7,19.9,4.9,34.7c-0.6-1-1-1.7-1.3-2c-3.3,7.4-6.8,15-10.2,22.5c-0.5-0.2-1-0.4-1.5-0.6
	c0.4-1.9,0.8-3.8,1.1-5.8c1.9-10.6-2.4-19.5-11.9-24.5c-4.6-2.4-9.1-4.9-11-10.7c3.9-2.6,10.2-4.4,5.1-11.3
	c-0.3,1.2-0.5,2.2-0.8,3.8c-4.7-1.5-10.7,2.7-14.6-3.2c-2.6,5-2.4,5.7,4.2,11.6c-3,1.9-5.7,4.5-8.8,5.5c-14.5,5-22.7,15.5-27.1,30.3
	c-1.1-5.4-2.1-10.3-3-15.2C70.3,164.9,69.8,165,69.3,165.1z"/>
<path class="st1" d="M132.1,123.6c3.2-1,4.8-2,6.7-4c1.1-1.1,2.3-3.8,1.7-4.7c-0.8-1.4-3.1-2.4-4.9-2.7c-6.1-1-11.1,3.3-13.8,11.5
	C125.3,123.9,131.5,123.8,132.1,123.6z"/>
<path class="st2" d="M95.2,124.1c-1.9-11-11.6-15.5-20.1-9.3C78.1,125.3,85.5,127,95.2,124.1z"/>
<path class="st1" d="M136.6,89c0.9-2.3,1.7-4,2.6-6.3c-2.4,0-4.7,0-7.1,0c0.9-1.8,2.1-5,3.3-7.6c-5.1,3.5-6.2,5.1-8.1,10.6
	c-0.3,0.8-0.7,3.4-0.2,3.8c0.5,0.4,2.1-0.2,2.8-0.7c0.9-0.7,3-2.9,3.5-3.3l0.2-0.2c0.4,2.4,0.1,6.3-0.7,10
	C135.2,92.3,135.8,91,136.6,89"/>
<path class="st1" d="M62,100.7c0.3,0,0.7,0,1-0.1c0-3.6,0-7.1,0-10.7c2.8,1.1,5.4,2.2,7.9,3.2c0.4-0.6,0.9-1.1,1.3-1.7
	c-3.2-4-6.4-7.9-9.6-11.9c-0.4,0.3-0.8,0.6-1.2,1c1.6,2.2,3.2,4.4,4.8,6.7c-2.1-0.3-3.9-0.6-5.7-0.9c0,1.8-0.2,3.5,0,5.3
	C60.9,94.6,61.5,97.7,62,100.7z"/>
<path class="st3" d="M132.2,113.5c4.4,3.5-0.1,9.2-0.1,9.2C127.4,118.1,131.5,114.1,132.2,113.5z"/>
<path class="st2" d="M85.6,124.5c-4.1-4.6-4.1-6.7-0.2-10.7C89.8,116.8,89.9,119.6,85.6,124.5z"/>
<path class="st1" d="M62,100.7c-0.5-3.1-1.1-6.1-1.4-9.2c-0.2-1.7,0-3.5,0-5.3c1.8,0.3,3.5,0.6,5.7,0.9c-1.6-2.3-3.2-4.5-4.8-6.7
	c0.4-0.3,0.8-0.6,1.2-1c3.2,4,6.4,7.9,9.6,11.9c-0.4,0.6-0.9,1.1-1.3,1.7c-2.5-1-5.1-2-7.9-3.2c0,3.6,0,7.1,0,10.7
	C62.6,100.7,62.3,100.7,62,100.7z"/>
<path class="st1" d="M95.2,124.1c-9.7,2.8-17.1,1.1-20.1-9.3C83.6,108.6,93.3,113.1,95.2,124.1z"/>
<path class="st3" d="M85.6,124.5c4.3-4.9,4.2-7.7-0.2-10.7C81.5,117.8,81.5,119.9,85.6,124.5z"/>
<path class="st2" d="M116.3,152.1c-4,0.3-6.7,0.5-9.3,0.6c-0.1-0.3-0.2-0.6-0.3-0.9c1.8-1.1,3.6-2.2,5.5-3.4
	C113.1,149.3,114.1,150.1,116.3,152.1z"/>
<path class="st2" d="M90.3,242.1c-0.5,0.4-1.5,1.1-2.9,2.1c-0.6-1-1.6-1.9-1.5-2.5c1.2-5.3,1.6-11,4-15.8c6-11.8,4.7-23.5,1-35.4
	c-0.4-1.4-2.4-2.3-3.6-3.5c-1,1.4-2.7,2.8-2.8,4.2c-0.1,3.2-0.3,7.2,1.3,9.6c6.7,10,2.5,18.2-3.6,27c-1.1-1.9-2.1-3.3-2.8-4.8
	c-4.8-10.5-9.9-21-14.2-31.7c-3.8-9.4-6.6-19.1-9.8-28.6c-1.2-3.7-2.3-7.5-4.7-11c0.7,6.7,1.4,13.3,2.2,21.2
	c-5.4-4.4-10.1-8.1-14.7-11.9c0.1-0.5,0.2-0.9,0.3-1.4c0.4,2,0.3,4.2,1.2,5.9c1.6,2.9,4.2,5.3,5.5,8.2c0.9,2,0.6,4.7,0.4,7.1
	c0,0.4-2.7,1.3-3.2,0.8c-1.5-1.5-3.2-3.3-3.7-5.2c-1.6-5.9-2.9-11.9-4-18c-0.6-3.3-1.6-6.8,2.6-9.2c1.3-0.7,1.8-3.9,1.7-5.8
	c-0.4-5.1,1.3-8.9,5-12.4c2.6-2.5,5-5.4,7-8.5c4-6.4,0.9-12.8-6.6-14c-2.1-0.3-4.1-1.1-7.1-2c4.1-3.5,7.4-3.3,10.8-1.8
	c3.2,1.4,5.7,3.3,5.6,7.4c-0.2,7.1-0.3,14.3-0.4,21.4c-0.1,12.6,1.2,24.9,7.3,36.3c2.3,4.2,3.2,9.1,5,13.6c1,2.5,2.5,4.9,4.7,7
	c0.1-1.9,0.2-3.7,0.3-6.6c2,3.2,3.5,5.6,5,8.1c-1.5-11.5,6-18.9,11.9-26.9c1.8-2.5,4.3-4.6,6.9-6.3c3.8-2.7,7.6-4.6,12.8-2.7
	c2.9,1,6.7-0.4,10.1-1c3-0.6,5.6,1.2,4.3,3.7c-4.4,8.4-2.6,17.7-3.8,26.5c-1.6,11.3-3.8,22.1-11.9,31.1c-2.6,2.8-3.6,7.3-4.4,11.3
	c-0.8,4-0.3,8.3-0.6,12.4c-0.2,2.1-1,4.2-1.5,6.2c-0.4-0.1-0.9-0.1-1.3-0.2c-0.5-1.4-1-2.8-1.4-3.8c-1.4,1.6-2.8,3-4.2,4.5
	C91.9,245.1,91.1,243.6,90.3,242.1z"/>
<path class="st4" d="M69.3,165.1c0.5-0.1,1-0.2,1.5-0.3c1,4.9,2,9.8,3,15.2c4.4-14.8,12.5-25.4,27.1-30.3c3.1-1.1,5.8-3.6,8.8-5.5
	c-6.6-5.9-6.8-6.6-4.2-11.6c3.9,5.9,9.8,1.6,14.6,3.2c0.3-1.5,0.6-2.6,0.8-3.8c5.2,7-1.1,8.8-5.1,11.3c1.9,5.8,6.4,8.2,11,10.7
	c9.5,5,13.7,13.9,11.9,24.5c-0.3,1.9-0.7,3.8-1.1,5.8c0.5,0.2,1,0.4,1.5,0.6c3.4-7.6,6.8-15.1,10.2-22.5c0.2,0.3,0.6,1,1.3,2
	c3.8-14.8,2.4-26.3-4.9-34.7c0.3-2.5,0.9-4,0.6-5.2c-2.2-8.5-4.7-17-6.8-25.5c-0.6-2.4-0.8-5.4,0.2-7.5c3.7-7.9,7.6-15.9,12.3-23.3
	c2.8-4.4,2.3-8.5,2.4-12.4c-5.3,4-10.5,8.1-15.8,12c-4.3,3.1-9.1,5.6-13.1,9.1c-3.6,3.1-7.1,4.3-11.8,3.9c-12.4-1-24.8-3.4-37.3-0.7
	c-1.7,0.4-3.9-0.6-5.5-1.6c-8.7-5-17.7-9.7-23.2-18.5c-5.8,9.1-0.9,16.4,2.5,24c0.6,1.2,1.3,2.3,1.9,3.5c5.2,9.8,9.6,19.9,10,31.1
	c0.4,9.9,1.6,19.8-1,29.6c-1.1,4.3-0.9,8.9-1.2,13.4c-0.1,0.9,0.5,1.8,1,3.5c0.7-2.9,1.2-4.8,1.8-7.3c2.2,5.6,4.1,10.4,6.5,16.5
	C69.3,171.2,69.3,168.1,69.3,165.1z"/>
<path class="st2" d="M90.3,242.1c0.8,1.5,1.5,3,2.3,4.5c1.4-1.5,2.8-3,4.2-4.5c0.4,1,0.9,2.4,1.4,3.8c0.4,0.1,0.9,0.1,1.3,0.2
	c0.5-2.1,1.3-4.1,1.5-6.2c0.3-4.1-0.2-8.4,0.6-12.4c0.8-3.9,1.9-8.5,4.4-11.3c8.1-8.9,10.3-19.7,11.9-31.1c1.2-8.8-0.5-18,3.8-26.5
	c1.3-2.5-1.3-4.3-4.3-3.7c-3.3,0.7-7.2,2.1-10.1,1c-5.2-1.9-9,0.1-12.8,2.7c-2.5,1.8-5.1,3.9-6.9,6.3c-5.9,8-13.4,15.4-11.9,26.9
	c-1.5-2.4-3-4.9-5-8.1c-0.1,2.8-0.2,4.7-0.3,6.6c-2.2-2.1-3.7-4.4-4.7-7c-1.8-4.5-2.7-9.4-5-13.6c-6.2-11.4-7.4-23.7-7.3-36.3
	c0-7.1,0.1-14.3,0.4-21.4c0.1-4.1-2.4-6-5.6-7.4c-3.4-1.5-6.6-1.7-10.8,1.8c3,0.9,5,1.7,7.1,2c7.5,1.2,10.7,7.5,6.6,14
	c-1.9,3.1-4.3,6-7,8.5c-3.7,3.5-5.4,7.3-5,12.4c0.2,2-0.4,5.1-1.7,5.8c-4.3,2.4-3.2,5.9-2.6,9.2c1.1,6,2.4,12.1,4,18
	c0.5,2,2.2,3.7,3.7,5.2c0.4,0.4,3.1-0.4,3.2-0.8c0.2-2.4,0.5-5-0.4-7.1c-1.3-3-4-5.3-5.5-8.2c-0.9-1.7-0.9-3.9-1.2-5.9
	c-0.1,0.5-0.2,0.9-0.3,1.4c4.7,3.8,9.3,7.6,14.7,11.9c-0.8-7.9-1.5-14.5-2.2-21.2c2.3,3.5,3.4,7.3,4.7,11c3.2,9.6,6.1,19.3,9.8,28.6
	c4.3,10.7,9.4,21.2,14.2,31.7c0.7,1.6,1.7,3,2.8,4.8c6.1-8.9,10.3-17.1,3.6-27c-1.6-2.4-1.4-6.4-1.3-9.6c0-1.4,1.8-2.8,2.8-4.2
	c1.2,1.1,3.2,2.1,3.6,3.5c3.7,11.9,5,23.6-1,35.4c-2.4,4.7-2.9,10.5-4,15.8c-0.1,0.6,0.9,1.5,1.5,2.5
	C88.8,243.2,89.8,242.5,90.3,242.1z"/>
<path class="st2" d="M116.3,152.1c-2.2-2-3.2-2.9-4.1-3.7c-1.9,1.2-3.7,2.3-5.5,3.4c0.1,0.3,0.2,0.6,0.3,0.9
	C109.6,152.6,112.2,152.4,116.3,152.1z"/>
</svg>
